<?xml version="1.0" encoding="utf-8"?>
<!-- Generator: Adobe Illustrator 28.2.0, SVG Export Plug-In . SVG Version: 6.00 Build 0)  -->
<svg version="1.1" id="Layer_1" xmlns="http://www.w3.org/2000/svg" xmlns:xlink="http://www.w3.org/1999/xlink" x="0px" y="0px"
	 viewBox="0 0 615.1 434.7" style="enable-background:new 0 0 615.1 434.7;" xml:space="preserve">
<style type="text/css">
	.st0{opacity:0.36;fill:#FCC570;}
	.st1{fill:#BD593D;}
	.st2{fill:#9E4935;}
	.st3{fill:#E94B4E;}
	.st4{fill:#D23636;}
	.st5{fill:#FFFFFF;}
	.st6{fill:#5A9FB5;}
	.st7{fill:#69ACC0;}
	.st8{fill:#402019;}
	.st9{fill:#371912;}
	.st10{fill:#B04E4F;}
	.st11{opacity:0.5;}
	.st12{fill:#EF7D81;}
	.st13{fill:#27282D;}
	.st14{fill:#ED7A15;}
	.st15{fill:#D66C12;}
	.st16{fill:#F28B31;}
	.st17{fill:#4B0F1B;}
	.st18{fill:#310E16;}
	.st19{fill:#037395;}
	.st20{fill:#015A6E;}
	.st21{fill:#418AA1;}
	.st22{fill:#32788C;}
	.st23{fill:#772E1B;}
	.st24{opacity:0.5;fill:#CD202C;}
	.st25{opacity:0.5;fill:#CC3738;}
	.st26{fill:#F9C6B7;}
	.st27{fill:#EE8472;}
	.st28{fill:#0C343B;}
	.st29{fill:#014A57;}
	.st30{fill:#543027;}
	.st31{fill:#703E36;}
	.st32{fill:#C65555;}
	.st33{opacity:0.6;fill:#F0835D;}
	.st34{fill:#2F1A15;}
</style>
<g>
	<path class="st0" d="M466.02,401.16c-34.62,0-64.33,1.98-77.02,4.8c-15.27-1.55-37.14-2.53-61.44-2.53
		c-27.96,0-52.72,1.29-67.89,3.27c-13.08-2.73-42.31-4.64-76.27-4.64c-46.16,0-83.59,3.52-83.59,7.85c0,4.34,37.42,7.85,83.59,7.85
		c27.96,0,52.72-1.29,67.89-3.27c13.08,2.73,42.31,4.64,76.27,4.64c34.62,0,64.33-1.98,77.02-4.8c15.27,1.55,37.14,2.53,61.44,2.53
		c46.16,0,83.59-3.52,83.59-7.85C549.61,404.68,512.19,401.16,466.02,401.16z"/>
	<g>
		<g>
			<g>
				<g>
					<path class="st1" d="M510.13,364.73c0,0-3.62,19.12-2.71,28.43h-9.3c0,0-2.71-21.58-2.33-31.4L510.13,364.73z"/>
					<path class="st2" d="M510.13,364.73l-14.34-2.97c-0.2,5.14,0.45,13.51,1.11,20.31c3.62-1.07,7.32-1.9,11.05-2.57
						C508.79,371.84,510.13,364.73,510.13,364.73z"/>
				</g>
				<g>
					<path class="st3" d="M493.72,397.18c0,0-3.39,8.61-1.45,9.55c1.94,0.94,11.29,0.85,14.9,1.59c3.6,0.74,13.7,2.45,26.95,1.18
						c5.27-0.51-19.1-10.67-22.52-13.12c-3.42-2.45-1.86-11.3-1.19-12.79c1.41-3.16-10.21-4.49-7.31,3.88c0,0-8.97-2.07-8.75-1.37
						C494.56,386.8,495.19,392.71,493.72,397.18z"/>
					<g>
						<path class="st4" d="M505.28,385.43c-2.03,8.44,3.14,19.49,12.72,19.6c0.79,0.01,0.79-1.21,0-1.22
							c-8.77-0.11-13.39-10.41-11.55-18.06C506.64,384.98,505.46,384.66,505.28,385.43L505.28,385.43z"/>
					</g>
					<path class="st4" d="M503.13,393.14c0,1.84-1.49,3.33-3.33,3.33c-1.84,0-3.33-1.49-3.33-3.33c0-1.84,1.49-3.33,3.33-3.33
						C501.64,389.81,503.13,391.3,503.13,393.14z"/>
					<g>
						<path class="st5" d="M505.06,388.63c1.87-0.19,3.74-0.02,5.5-0.81c0.57-0.26,0.2-1.16-0.37-0.9
							c-1.67,0.75-3.47,0.56-5.25,0.74C504.32,387.73,504.44,388.69,505.06,388.63z"/>
						<path class="st5" d="M510.57,392.21c-1.11,0.51-2.73,1.27-3.95,0.79c-0.58-0.23-0.97,0.66-0.39,0.89
							c1.5,0.59,3.33-0.14,4.71-0.78C511.5,392.85,511.14,391.95,510.57,392.21z"/>
						<path class="st5" d="M509.59,400.32c1.83-0.3,3.76-1.67,4.92-3.08c0.4-0.48-0.37-1.08-0.76-0.6c-1,1.2-2.71,2.46-4.27,2.71
							C508.86,399.45,508.97,400.42,509.59,400.32z"/>
						<path class="st5" d="M516.58,403.24c1.51-0.7,2.78-1.84,3.88-3.07c0.42-0.47-0.35-1.06-0.76-0.6
							c-0.99,1.1-2.13,2.14-3.48,2.77C515.64,402.59,516.01,403.5,516.58,403.24z"/>
						<path class="st5" d="M525.05,402.24c-2.75,1.4-3.73,4.16-4.08,5.97c-15.18-0.69-28.73-3.4-28.91-3.43
							c-0.79-0.16-1.56,0.35-1.72,1.14c-0.16,0.79,0.35,1.56,1.14,1.72c0.23,0.05,23.36,4.68,43.35,3.44c0.03,0,0.06,0,0.09-0.01
							c0.76-0.09,1.33-0.76,1.28-1.54C536.02,406.05,525.05,402.24,525.05,402.24z"/>
					</g>
				</g>
			</g>
			<g>
				<path class="st1" d="M454.7,173.71c0,0,8.46,12.13,9.56,16.91c1.1,4.78-4.78,14.44-4.78,14.44s6.62,5.42,17.28,3.58
					c10.66-1.84,15.07-4.78,15.07-12.5c0-7.72-4.05-32.14-4.05-32.14L454.7,173.71z"/>
				<path class="st2" d="M487.79,164l-33.09,9.71c0,0,3.95,5.67,6.8,10.78c10.04,0.39,20.06,1.69,29.79,4.14
					C490.18,178.45,487.79,164,487.79,164z"/>
			</g>
			<g>
				<g>
					<g>
						<path class="st1" d="M508.06,47.56c0,0,2.2-12.52,2.39-15.01c0.19-2.48-0.19-7.65-5.83-8.6c-5.64-0.96-11.57-0.19-17.4-3.06
							c-5.83-2.87-11.66-3.82-12.04-3.15c-0.38,0.67,7.84,4.78,10.7,6.59c0,0,2.77,4.87,4.4,5.35c1.62,0.48,11.47,0.57,11.95,0.96
							c0.48,0.38-3.54,12.04-3.54,12.04L508.06,47.56z"/>
						<g>
							<path class="st2" d="M493.22,27.07c-1.06,0-1.57-0.54-2.3-1.34c-0.35-0.38-0.76-0.81-1.31-1.29c-1.87-1.61-3.55-0.07-3.62,0
								c-0.06,0.06-0.16,0.06-0.21-0.01c-0.06-0.06-0.06-0.16,0.01-0.22c0.02-0.02,1.94-1.79,4.03,0c0.57,0.49,0.97,0.92,1.33,1.31
								c0.9,0.98,1.35,1.47,2.93,1.14c0.66-0.14,1.29-0.39,1.96-0.66c1.65-0.67,3.51-1.42,6.79-0.91c0.08,0.01,0.14,0.09,0.13,0.17
								c-0.01,0.08-0.08,0.14-0.17,0.13c-3.19-0.5-5.02,0.24-6.63,0.89c-0.68,0.28-1.32,0.54-2.01,0.68
								C493.79,27.04,493.49,27.07,493.22,27.07z"/>
						</g>
					</g>
					<path class="st2" d="M498.69,42.68l9.37,4.87c0,0,0.82-4.67,1.5-8.87c-2.67-1.42-5.42-2.91-8.26-4
						C500.24,38.18,498.69,42.68,498.69,42.68z"/>
				</g>
				<path class="st6" d="M470.68,134.2c0,0,5.66-82.69,22.47-93.33c9.31-5.9,19.31,5.83,21.03,16.15
					c2.68,16.1-10.41,55.86-18.5,73.42C487.59,148,473.99,149.44,470.68,134.2z"/>
				<path class="st7" d="M493.15,40.87c-5.87,3.71-10.37,16.2-13.76,30.89c5.32-11.57,12.3-22.68,20.33-32.36
					C497.57,39.08,495.34,39.48,493.15,40.87z"/>
			</g>
			<g>
				<path class="st1" d="M418.9,35.47c0,0-0.35-10.96-4.15-12.32c-3.8-1.36-12.69-2.44-17.26-4.76c-4.57-2.33-9.02-3.78-8.08-2.08
					c0.94,1.7,8.45,4.69,7,5.21c-1.44,0.52-12.04,2.98-17.39,1.9c-5.34-1.08-0.92,2.91,6.33,2.71c0,0,1.15,1.42,4.28,2.94
					c3.13,1.52,9.67,2.17,20.39-0.36l0.9,11.71L418.9,35.47z"/>
				<g>
					<path class="st2" d="M390.36,25.85c2.65-0.1,5.25-0.55,7.87-0.93c0.15-0.02,0.12-0.26-0.03-0.24
						c-2.61,0.38-5.22,0.84-7.87,0.93C390.17,25.62,390.21,25.86,390.36,25.85L390.36,25.85z"/>
				</g>
				<path class="st1" d="M385.36,26.12c0,0-3.2-3.4-0.54-3.78c1.61-0.23,4.48,4.88,10.54,4.26c3.49-0.36,5.97-1.16,5.97-1.16"/>
				<g>
					<path class="st2" d="M396.7,26.58c-0.42,0.06-0.87,0.12-1.32,0.16c-4.03,0.41-6.69-1.69-8.45-3.08
						c-0.89-0.7-1.59-1.26-2.08-1.19c-0.49,0.07-0.79,0.25-0.89,0.54c-0.29,0.83,0.99,2.44,1.51,2.99c0.06,0.06,0.06,0.16-0.01,0.21
						c-0.06,0.06-0.16,0.05-0.22-0.01c-0.08-0.09-1.99-2.13-1.58-3.3c0.14-0.4,0.52-0.65,1.13-0.74c0.62-0.09,1.33,0.47,2.32,1.25
						c1.72,1.36,4.33,3.41,8.23,3.01c3.44-0.35,5.91-1.15,5.94-1.16c0.07-0.03,0.17,0.02,0.19,0.1c0.03,0.08-0.02,0.17-0.1,0.19
						C401.36,25.58,399.47,26.19,396.7,26.58z"/>
				</g>
				<path class="st2" d="M410.3,32.21l0.63,8.18l7.97-4.93c0,0-0.11-3.38-0.86-6.62c-1.94,0.63-3.85,1.35-5.69,2.22
					C411.66,31.4,410.98,31.8,410.3,32.21z"/>
			</g>
			<g>
				<g>
					<path class="st1" d="M450.31,343.42c0,0-6.69,27.64-10.1,35.36c0,0,3.03,2.78,10.49,0c0,0,8.64-17.24,14.53-29.78
						L450.31,343.42z"/>
					<path class="st2" d="M450.31,343.42c0,0-3.08,12.74-6.13,23.33c0.14-0.01,0.28-0.02,0.43-0.03c4.05-0.26,8.14-0.38,12.25-0.36
						c2.68-5.46,5.79-11.87,8.37-17.37L450.31,343.42z"/>
				</g>
				<g>
					<path class="st3" d="M438.33,378.6c0,0-5.34,7.31-3.74,8.68c1.6,1.37,10.48,3.6,13.71,5.19c3.23,1.59,12.37,5.71,25.22,7.78
						c5.12,0.83-15.45-14.83-18.08-17.99c-2.63-3.17,1.04-11.15,2.04-12.4c2.12-2.64-8.55-6.78-7.88,1.86c0,0-7.98-4.18-7.95-3.46
						C441.69,368.98,440.83,374.73,438.33,378.6z"/>
					<g>
						<path class="st4" d="M451.7,370.1c-0.65,8.01-1.34,15.86,6.16,20.82c0.66,0.43,1.27-0.62,0.61-1.05
							c-7.08-4.68-6.16-12.33-5.55-19.77C452.98,369.32,451.76,369.33,451.7,370.1L451.7,370.1z"/>
					</g>
					<circle class="st4" cx="446.47" cy="375.52" r="3.33"/>
					<g>
						<path class="st5" d="M451.18,373.31c1.82,0.28,3.55,0.91,5.4,0.59c0.6-0.1,0.48-1.05-0.12-0.94c-1.77,0.3-3.42-0.32-5.15-0.59
							C450.7,372.27,450.57,373.22,451.18,373.31z"/>
						<path class="st5" d="M455.51,378.06c-1.18,0.21-2.9,0.52-3.94-0.23c-0.5-0.36-1.08,0.38-0.59,0.75
							c1.28,0.93,3.19,0.69,4.65,0.43C456.24,378.9,456.11,377.96,455.51,378.06z"/>
						<path class="st5" d="M452.58,385.5c1.81,0.17,3.97-0.66,5.42-1.7c0.5-0.36-0.07-1.12-0.57-0.76
							c-1.24,0.89-3.17,1.66-4.71,1.51C452.1,384.5,451.97,385.44,452.58,385.5z"/>
						<path class="st5" d="M458.47,389.99c1.6-0.29,3.08-1.06,4.43-1.94c0.51-0.34-0.07-1.09-0.58-0.76
							c-1.21,0.79-2.55,1.5-3.98,1.75C457.74,389.15,457.87,390.1,458.47,389.99z"/>
						<path class="st5" d="M466.74,391.14c-2.95,0.65-4.56,3.02-5.34,4.64c-14.2-4.41-26.36-10.33-26.52-10.4
							c-0.7-0.35-1.56-0.05-1.91,0.65c-0.35,0.71-0.05,1.56,0.65,1.91c0.21,0.1,20.96,10.21,40.19,13.98
							c0.03,0.01,0.05,0.01,0.08,0.01c0.74,0.1,1.45-0.39,1.59-1.14C476.18,397.47,466.74,391.14,466.74,391.14z"/>
					</g>
				</g>
			</g>
			<g>
				<g>
					<path class="st8" d="M463.96,156.71c-6.41-1.39-10.65,5.02-15.76,0.08c-6.68-6.14-8.69-16.64-6.71-25.24
						c1.8-8.47,7.9-13.88,12.2-21.01c4.07-6.68,3.66-14.23,5.58-21.4c1.74-7.05,6.65-6.91,12.77-5.32
						c9.56-3.12,20.17-4.08,27.02,6.06c6.06,9.06,6.44,17,9.16,27.13c2.27,7.83,8.39,12.45,12.6,19.16
						c5.28,8.94,5.82,21.76-2.5,29.21c-6.43,5.52-15.4,5.86-23.34,4.78C482.79,168.57,470.1,158.04,463.96,156.71z"/>
				</g>
				<g>
					<path class="st9" d="M453.68,110.55c4.07-6.68,3.66-14.23,5.58-21.4c1.74-7.05,6.65-6.91,12.77-5.32
						c6.53-2.13,13.55-3.25,19.53-0.52c-6.04-0.56-12.84,0.21-17.72,3.44c-7.23,1.37-10.49,6.71-12.16,13.47
						c-1.67,7.14-1.53,14.61-3.89,21.52c-2.44,7.14-6.58,13.61-7.32,21.43c-0.42,4.47,0.39,9.08,3.15,12.79
						c0.58,0.78,1.22,1.49,1.91,2.15c-2.48,0.79-4.79,1.13-7.33-1.31c-6.68-6.14-8.69-16.64-6.71-25.24
						C443.29,123.08,449.38,117.67,453.68,110.55z"/>
				</g>
				<g>
					<path class="st9" d="M481.09,86.71c2.76,4.36,6.07,8.28,9.76,11.89c3.02,2.96,6.95,5.21,9.5,8.61
						c4.39,5.87,1.3,13.01,1.47,19.54c0.22,8.53,10.12,10.15,14.22,16.32c2.1,3.16,2.78,6.91,1.51,10.52
						c-1.25,3.55-4.84,6.04-8.14,7.47c-0.38,0.16-0.62-0.34-0.29-0.56c3.96-2.64,7.72-5.52,8.14-10.63
						c0.4-4.89-3.02-8.62-6.66-11.29c-2.55-1.87-5.41-3.3-7.39-5.85c-1.58-2.03-2.01-4.61-2.01-7.12
						c0.03-7.35,2.46-14.82-4.31-20.14c-6.63-5.22-12.04-11.18-15.98-18.68C480.85,86.68,481.02,86.6,481.09,86.71L481.09,86.71z"/>
				</g>
				<g>
					<path class="st9" d="M518.75,138.91c-1.49-2.61-3.1-4.63-5.62-6.32c-1.84-1.23-3.66-2.31-5.1-4.02c-1.43-1.69-1.83-3.89-2.2-6
						c-0.57-3.19-0.75-6.44-1.22-9.65c-1.69-11.62-5.68-25.14-17.78-29.63c-0.18-0.07-0.1-0.33,0.09-0.28
						c11.32,2.78,15.39,15.75,17.71,25.66c0.79,3.37,1.27,6.75,1.69,10.19c0.41,3.34,0.58,6.85,2.72,9.6
						c1.63,2.09,4.15,3.16,6.06,4.92c1.7,1.56,2.94,3.33,3.67,5.52C518.79,138.92,518.76,138.92,518.75,138.91L518.75,138.91z"/>
				</g>
				<g>
					<path class="st9" d="M498.68,101.98c-1.73-3.99-3.84-7.65-6.76-10.89c-3.02-3.34-7.31-6.67-11.76-7.68
						c-0.27-0.06-0.19-0.53,0.09-0.48c4.54,0.74,8.44,4.03,11.63,7.17c3.28,3.23,5.55,7.48,6.9,11.84
						C498.79,102,498.7,102.03,498.68,101.98L498.68,101.98z"/>
				</g>
				<g>
					<path class="st9" d="M495.01,115.97c0.55,6.63-0.41,13.18-0.3,19.8c0.06,3.4,0.83,6.94,3.18,9.51c2.18,2.37,5.26,3.6,7.26,6.19
						c2.75,3.57,0.68,8.64-2,11.52c-3.29,3.54-8.41,2.95-12.57,1.69c-0.25-0.08-0.12-0.43,0.12-0.38c5.5,1.19,10.74,1.1,13.85-4.34
						c1.56-2.73,1.59-6.09-0.36-8.61c-1.67-2.15-4.37-3.23-6.34-5.05c-3.37-3.12-4.07-7.58-4.07-11.99
						c0.01-6.11,0.85-12.24,1.12-18.34C494.92,115.9,495,115.91,495.01,115.97L495.01,115.97z"/>
				</g>
				<polygon class="st2" points="459.19,132.45 460.11,114.96 470.68,120.19 472.99,138.92 				"/>
			</g>
			<g>
				<path class="st7" d="M467.42,173.99c7.18-5.39,24.34,3.27,28.71,0c4.36-3.27,2.18-16.11-8.72-29.86
					c-10.9-13.75-25.8-13.1-34.52-22.14c-8.72-9.05-16.9-57.73-21.08-74.43c-4.72-18.91-23.09-18.05-26.16-5.83
					c-2.38,9.45,2.91,31.95,7.99,42.43c5.09,10.48,14.72,45.05,16.35,59.97c1.45,13.32,21.26,39.5,26.89,38.36
					C462.52,181.35,463.06,177.26,467.42,173.99z"/>
				<path class="st6" d="M432.28,116.97c0.81,8.13,1.22,19.91,8.13,26.01c8.94,8.53,26.82,7.72,38.2,11.79
					c8.24,3.05,14.58,7.36,19.59,12.79c-0.26-5.79-3.64-14.4-10.79-23.42c-10.9-13.75-25.8-13.1-34.52-22.14
					c-8.72-9.05-16.9-57.73-21.08-74.43c-2.08-8.33-6.81-12.82-11.71-14.2c7.34,13.38,11.83,26.64,12.17,42.56
					C432.68,89.74,431.06,103.15,432.28,116.97z"/>
			</g>
			<g>
				<g>
					<path class="st1" d="M460.31,110.69c0,0-1.12-5-4.44-4.19c-3.32,0.82-2.12,11,4.11,11.3L460.31,110.69z"/>
					<path class="st2" d="M455.29,108.82c3.15,0.72,4.43,3.31,4.46,6.4c0,0,0,0,0,0.01l0,0c0,0.03,0,0.05,0,0.08
						c0,0.37-0.55,0.33-0.62,0.01c-0.14-0.67-0.18-1.72-0.96-1.74c-1.29-0.03-1.31,1.17-0.47,1.77c0.29,0.24,0.63,0.36,1,0.38
						c0.27,0.03,0.22,0.45-0.06,0.43c-1.36-0.13-2.73-1.66-1.62-2.91c0.69-0.78,1.41-0.32,1.93,0.39c-0.4-2.09-1.53-3.82-3.73-4.63
						C455.14,108.97,455.18,108.8,455.29,108.82z"/>
				</g>
				<g>
					<path class="st1" d="M490.86,120.57c0,0,3.84-3.4,6.05-0.8c2.21,2.61-4.73,10.15-9.95,6.75L490.86,120.57z"/>
					<path class="st2" d="M496.02,122c-2.97-1.26-5.53,0.09-7.36,2.58c0,0-0.01,0-0.01,0c0,0,0,0,0,0
						c-0.02,0.02-0.04,0.04-0.05,0.07c-0.21,0.3,0.25,0.59,0.49,0.37c0.51-0.47,1.15-1.29,1.8-0.85c1.06,0.73,0.37,1.71-0.66,1.71
						c-0.37,0.02-0.72-0.07-1.03-0.28c-0.24-0.14-0.45,0.24-0.21,0.38c1.18,0.69,3.18,0.25,3.02-1.4c-0.1-1.04-0.96-1.08-1.79-0.82
						c1.55-1.46,3.47-2.2,5.73-1.57C496.06,122.22,496.13,122.05,496.02,122z"/>
				</g>
				<g>
					<path class="st1" d="M469.75,133.26c3.9,1.26,19.78-3.23,24.63-18.23c1.5-4.65-12.97-24.05-17.81-22.92
						c-8.09,1.5-15.3,9.45-16.1,11.94C455.62,119.05,465.85,132,469.75,133.26z"/>
					<path class="st1" d="M460.47,104.05c0.63-1.95,5.19-7.26,11.03-10.18c-5.2,7.4-8.33,15.52-7.97,25.11
						c0.11,4.81,1.47,8.8,3.58,12.47C462.61,127.19,456.51,116.31,460.47,104.05z"/>
				</g>
				<g>
					<path class="st2" d="M474.25,124.02c-0.99-0.17-1.92-0.88-2.31-1.82c-0.07-0.17,0.06-0.31,0.24-0.28
						c0.69,0.13,1.45,0.35,2.12,0.58c0.64,0.22,1.33,0.22,1.96,0.45c0.04,0.01,0.05,0.05,0.04,0.08
						C476.08,123.89,475.07,124.17,474.25,124.02z"/>
					<path class="st10" d="M466.95,122.62c0.45,1.42,1.84,2.12,3.06,2.79c1.4,0.77,2.74,1.5,4.3,1.9c1.05,0.27,0.75,1.9-0.32,1.67
						c-2.68-0.57-7.59-2.99-7.28-6.35C466.71,122.5,466.91,122.5,466.95,122.62z"/>
					<g class="st11">
						<path class="st12" d="M459.74,112.26c2.03-3,6.56-0.13,7.21,2.54c0.11,0.42,0.1,0.87,0.02,1.31c0,0.06,0,0.13-0.01,0.19
							c-0.14,1.25-0.91,2.29-2.18,2.57c-0.65,0.14-1.29,0.03-1.89-0.23c-0.63-0.13-1.22-0.55-1.7-1.11
							c-0.21-0.19-0.42-0.39-0.6-0.59C459.48,115.73,458.74,113.75,459.74,112.26z"/>
						<path class="st12" d="M482.2,121.08c0.17-0.38,0.42-0.73,0.75-1.05c1.93-1.94,7.16-1.21,7.06,2.09
							c-0.06,1.73-1.68,2.75-3.18,3.14c-0.83,0.22-1.86,0.29-2.79,0.08c-0.01,0-0.02,0-0.02,0c0,0,0,0-0.01,0
							c-0.64-0.15-1.23-0.43-1.66-0.91c-0.64-0.72-0.89-1.79-0.51-2.7C481.94,121.49,482.06,121.28,482.2,121.08z"/>
					</g>
					<g>
						<path class="st13" d="M462.46,110.24c1.85-0.81,3.36-1.51,5.23-0.38c1.38,0.83,2.32,2.67,2.17,4.26
							c-0.01,0.05-0.07,0.06-0.09,0.02c-0.64-1.06-1.12-2.1-1.99-3.01c-1.41-1.48-3.49-1.1-5.24-0.67
							C462.41,110.49,462.34,110.29,462.46,110.24z"/>
						<path class="st13" d="M485.36,115.58c2.12-0.05,3.09,1.79,4.02,3.38c0.07,0.11-0.11,0.23-0.19,0.13
							c-1.08-1.27-2.13-2.35-3.87-2.55c-1.5-0.17-2.84,0.75-4.15,1.3c-0.05,0.02-0.09-0.03-0.06-0.07
							C481.98,116.28,483.7,115.62,485.36,115.58z"/>
					</g>
					<g>
						<path class="st13" d="M463.69,104.44c4.1-1.28,7.21-0.64,9.76,2.92c0.04,0.06-0.03,0.15-0.09,0.1
							c-2.87-2.57-5.77-3.34-9.57-2.71C463.6,104.79,463.51,104.5,463.69,104.44z"/>
						<path class="st13" d="M491.3,112.9c0.13,0.14-0.1,0.34-0.25,0.22c-2.95-2.49-5.83-3.3-9.61-2.56
							c-0.08,0.02-0.09-0.1-0.03-0.13C485.42,108.68,488.43,109.72,491.3,112.9z"/>
					</g>
				</g>
			</g>
			<g>
				<g>
					<g>
						<path class="st14" d="M492.4,372.27c4.9,3.19,14.02,3.83,18.68-0.38c2.34-2.11-1.12-5.55-3.45-3.45
							c-1.19,1.08-3.77,1.18-5.3,1.36c-2.78,0.33-5.13-0.22-7.47-1.74C492.22,366.34,489.77,370.56,492.4,372.27L492.4,372.27z"/>
					</g>
					<g>
						<path class="st15" d="M493.88,367.84c-0.88,1.33-1.4,3.47-0.4,4.87c0.46,0.63,1.51,0.03,1.05-0.61
							c-0.76-1.05-0.26-2.65,0.4-3.64C495.36,367.8,494.31,367.19,493.88,367.84z"/>
						<path class="st15" d="M496.5,369.8c-0.34,1.28-0.5,2.59,0.06,3.83c0.32,0.72,1.37,0.1,1.05-0.61
							c-0.41-0.91-0.18-1.97,0.06-2.89C497.88,369.36,496.7,369.04,496.5,369.8z"/>
						<path class="st15" d="M500.02,370.3c-0.22,1.26-0.3,2.52-0.1,3.78c0.13,0.78,1.3,0.45,1.18-0.32
							c-0.17-1.04-0.08-2.11,0.1-3.14C501.33,369.85,500.15,369.53,500.02,370.3z"/>
						<path class="st15" d="M502.66,370.86c0,1.08,0.02,2.16,0.22,3.23c0.14,0.77,1.32,0.44,1.18-0.32
							c-0.18-0.96-0.18-1.93-0.18-2.9C503.88,370.07,502.66,370.07,502.66,370.86z"/>
						<path class="st15" d="M506.65,370.71c-0.11-0.78-1.28-0.44-1.18,0.32c0.11,0.77,0.3,1.52,0.49,2.27
							c0.19,0.76,1.37,0.44,1.18-0.32C506.95,372.23,506.75,371.48,506.65,370.71z"/>
						<path class="st15" d="M509.52,369.25c-0.28-0.73-1.46-0.41-1.18,0.32c0.29,0.75,0.66,1.47,0.79,2.27
							c0.12,0.77,1.3,0.45,1.18-0.32C510.18,370.72,509.81,370,509.52,369.25z"/>
					</g>
				</g>
				<g>
					<g>
						<path class="st14" d="M444.26,355.58c3.9,5.24,9.91,9.15,16.64,8.82c3.13-0.15,3.14-5.03,0-4.88
							c-4.92,0.24-9.53-2.52-12.43-6.4C446.62,350.63,442.38,353.05,444.26,355.58L444.26,355.58z"/>
					</g>
					<g>
						<path class="st15" d="M447.67,353.88c0.68-0.4,0.06-1.45-0.61-1.05c-0.83,0.49-1.54,1.14-2,2c-0.37,0.69,0.68,1.31,1.05,0.61
							C446.47,354.76,447.01,354.28,447.67,353.88z"/>
						<path class="st15" d="M448.02,354.31c-0.66,0.78-1.29,1.61-1.44,2.64c-0.12,0.77,1.06,1.1,1.18,0.32
							c0.13-0.83,0.6-1.48,1.13-2.1C449.39,354.58,448.53,353.71,448.02,354.31z"/>
						<path class="st15" d="M450.69,356.31c-0.55,0.74-1,1.53-1.38,2.37c-0.32,0.71,0.73,1.33,1.05,0.61
							c0.38-0.84,0.83-1.63,1.38-2.37C452.21,356.29,451.15,355.69,450.69,356.31z"/>
						<path class="st15" d="M453.06,357.9c-0.3,0.69-0.59,1.38-0.89,2.07c-0.31,0.71,0.74,1.34,1.05,0.61
							c0.3-0.69,0.59-1.38,0.89-2.08C454.42,357.8,453.37,357.17,453.06,357.9z"/>
						<path class="st15" d="M455.18,359.33c-0.19,0.93-0.39,1.85-0.59,2.77c-0.17,0.77,1.01,1.09,1.18,0.32
							c0.2-0.92,0.41-1.84,0.59-2.77C456.51,358.88,455.33,358.56,455.18,359.33z"/>
						<path class="st15" d="M457.82,360.38c-0.01,0.89-0.1,1.78-0.2,2.67c-0.09,0.78,1.13,0.77,1.22,0c0.1-0.89,0.19-1.78,0.2-2.67
							C459.05,359.59,457.83,359.59,457.82,360.38z"/>
						<path class="st15" d="M460.49,360.97c0.01,0.64,0.18,1.37-0.11,1.97c-0.35,0.7,0.71,1.32,1.05,0.61
							c0.41-0.84,0.3-1.67,0.28-2.58C461.7,360.19,460.48,360.18,460.49,360.97z"/>
					</g>
				</g>
				<g>
					<path class="st16" d="M465.14,274.63c0,0,11.44,27.89,7.49,32.35c-3.95,4.46-34.53,27.12-27.09,45.02
						c2.79,6.71,12.12,11.6,19.69,8.88c12.62-4.53,26.64-21.23,33.31-34.94C509.21,304.01,487.99,283.19,465.14,274.63z"/>
					<path class="st14" d="M465.14,274.63c0,0,5.84,14.23,7.73,23.99c6.72,6.57,11.37,14.03,9.25,24.99
						c-1.6,8.3-4.28,16.32-5.62,24.62c-0.35,2.17-0.6,4.34-0.79,6.52c9.25-7.3,17.98-18.84,22.82-28.8
						C509.21,304.01,487.99,283.19,465.14,274.63z"/>
				</g>
				<path class="st16" d="M460.37,198.78c0,0-22.57,10.91-17.31,39.51c5.27,28.59,48.53,70.36,49.29,74.12
					c0.75,3.76-9.37,29.2-7.11,46.51c2.26,17.31,25.17,14.44,30.44,4.66c5.27-9.78,10.16-48.53,6.02-59.82
					c-4.14-11.29-34.99-72.61-34.24-77.51c0.75-4.89,7.9-18.06,4.52-30.1C491.98,196.14,482.76,196.14,460.37,198.78z"/>
				<g>
					<g>
						<path class="st14" d="M457.34,201.55c5.97-0.54,11.95-0.97,17.93-1.37c5.98-0.4,12.06-1.19,18.06-0.61
							c3.13,0.3,3.1-4.58,0-4.88c-5.61-0.54-11.26,0.17-16.85,0.53c-6.38,0.42-12.76,0.87-19.14,1.45
							C454.24,196.96,454.21,201.84,457.34,201.55L457.34,201.55z"/>
					</g>
					<g>
						<path class="st15" d="M458.82,200.24c-0.18-0.95-0.16-1.91,0.1-2.84c0.21-0.76-0.97-1.08-1.18-0.32
							c-0.32,1.15-0.31,2.32-0.1,3.49C457.79,201.34,458.96,201.01,458.82,200.24z"/>
						<path class="st15" d="M461.43,199.4c-0.31-0.71-0.01-1.63,0.08-2.36c0.1-0.78-1.12-0.77-1.22,0
							c-0.13,1.04-0.35,1.98,0.08,2.98C460.69,200.74,461.74,200.11,461.43,199.4z"/>
						<path class="st15" d="M463.78,196.68c-0.41,1.11-0.52,2.33-0.3,3.49c0.15,0.77,1.33,0.44,1.18-0.32
							c-0.19-0.95-0.04-1.94,0.3-2.84C465.23,196.27,464.05,195.95,463.78,196.68z"/>
						<path class="st15" d="M468.71,196.58c-0.13-0.77-1.3-0.44-1.18,0.32c0.16,0.95-0.07,1.91,0.1,2.87
							c0.14,0.77,1.32,0.44,1.18-0.32C468.64,198.5,468.86,197.54,468.71,196.58z"/>
						<path class="st15" d="M470.97,196.74c0.01,0.67,0.08,1.35-0.08,2.01c-0.19,0.76,0.99,1.09,1.18,0.32
							c0.19-0.77,0.13-1.55,0.12-2.34C472.18,195.96,470.96,195.96,470.97,196.74z"/>
						<path class="st15" d="M473.94,196.54c0.08,0.79,0.01,1.58,0,2.37c-0.01,0.79,1.21,0.79,1.22,0c0.01-0.79,0.08-1.58,0-2.37
							C475.08,195.77,473.86,195.76,473.94,196.54z"/>
						<path class="st15" d="M477.69,196.35c-0.08,0.82-0.1,1.65-0.1,2.47c0,0.79,1.22,0.79,1.22,0c0-0.83,0.01-1.65,0.1-2.47
							C478.99,195.57,477.77,195.57,477.69,196.35z"/>
						<path class="st15" d="M481.06,195.56c0.09,0.92,0.1,1.85,0.2,2.77c0.08,0.77,1.3,0.78,1.22,0c-0.09-0.92-0.1-1.85-0.2-2.77
							C482.2,194.78,480.98,194.77,481.06,195.56z"/>
						<path class="st15" d="M485.11,195.46c-0.01,1.06-0.19,2.11-0.2,3.16c-0.01,0.79,1.21,0.79,1.22,0
							c0.01-1.06,0.18-2.11,0.2-3.16C486.34,194.67,485.12,194.67,485.11,195.46z"/>
						<path class="st15" d="M488.39,195.72c0.15,0.83-0.01,1.67-0.02,2.51c-0.01,0.79,1.21,0.79,1.22,0
							c0.02-0.96,0.16-1.88-0.02-2.83C489.43,194.62,488.25,194.95,488.39,195.72z"/>
						<path class="st15" d="M493.35,198.23c0.09-0.93,0-1.85-0.1-2.77c-0.08-0.77-1.3-0.78-1.22,0c0.1,0.92,0.19,1.84,0.1,2.77
							C492.06,199.01,493.28,199,493.35,198.23z"/>
					</g>
				</g>
				<path class="st14" d="M479,215.27c2.48,4.83,5.75,9.08,8.92,13.37c-0.35-1.16-0.52-1.99-0.46-2.4
					c0.57-3.67,4.74-12.02,5.35-21.05C489.28,209.9,484.83,213.76,479,215.27z"/>
			</g>
		</g>
		<g>
			<g>
				<g>
					<path class="st17" d="M175.39,67.15c5.4-3.02,18.67-2.73,9.2,4.58c2.72-0.09,15.05-0.12,10.27,5.13
						c7.01,0.94,9.2,4.3,4.43,10.12c2.24-0.4,5.9-1.59,7.82,0.2c1.69,1.92,0.21,5.32-1.31,7.03c2.58-1.45,7.39-4.43,9.93-1.55
						c3-4.55,9.2-9.45,14.77-9.99c6.15-0.58,4.45,4.09,1.18,7.07c3.17-2.06,10.81-5.48,14.29-3.13c3.6,2.57-2.74,6.12-5.21,7.21
						c4.02-0.53,10.78-0.03,13.09,3.55c2.56,4.58-3.41,8.78-7.41,10.45c2.83-0.44,10.2,0.59,9.55,4.39
						c-0.88,3.93-10.69,5.7-13.99,6.97c4.75,0.78,10.84,3.38,7.85,9.06c-2.99,5.68-11.84,8.06-17.32,5.98
						c3.22,1.35,5.17,4.83,1.54,7.16c-4.34,2.72-11.59,1.34-15.75,0.52c1.23,2.75,0.69,6.2-2.36,7.91
						c-3.52,1.97-8.1-2.34-10.79-0.54c-2.7,1.8-0.01,6.59-5.1,6.87c-3.32,0.14-6.34-3.61-5.92-6.71c2.38,8.11-9.83,7.79-8.17,0.28
						c-2.63,5.77-10.92,5.83-6.65-0.86c-2.21,2.67-5.95,5.34-9.41,4.12c-2.98-0.91-3.98-4.36-1.53-6.59
						c-2.22,2.1-5.85,4.42-8.94,3.86c-3.09-0.56-3.25-3.05-1.15-5.37c-2,0.84-5.88,2.72-7.81,0.94c-1.68-1.35-0.66-3.93,1.1-5.2
						c-7.87,4.12-6.86-6.75-1.23-9.91c-9.67,3.12-7.44-5.57-2.3-10.16c-9.26-1.11-8.79-8.54-1.28-12.74
						c-9.02-0.68-8.28-6.53-1.61-11.13c-1.9-0.65-5.24-1.65-5.16-4.26c0.08-2.62,4.43-4.2,6.44-4.47c-1.45-1.48-4.21-3.66-3.06-6.02
						c1.02-2.58,4.69-3.2,6.84-2.11c-3.88-5.27,3.27-10.14,8.29-7.22c-0.45-5.76,4.69-10.36,9.75-5.17
						C169.19,58.02,180.35,58.94,175.39,67.15z"/>
				</g>
				<g>
					<path class="st18" d="M243.12,125.7c-4.43-3.34-9.7-3.18-14.87-2.85c3.01-1.69,11.89-8.29,6.35-11.94
						c-4.51-3.06-13.34,0.72-17.59,3.1c3.44-4.25,3.74-7.45-2.55-7.89c-5.19-0.12-10.49,1.22-15.02,3.52
						c2.35-4.11,4.27-9.84,1.79-14.27c-1.99-3.55-5.84-4.18-9.76-4.54c1.33-2.61,2.82-5.77-0.18-7.81
						c-2.91-1.87-7.62-1.55-10.82-1.86c5.28-7.61-4.4-6.62-9.37-5.93c3-4.57,3.59-8.86-1.99-10.95c2.72-5.89,10.61-4.28,6.29,2.87
						c5.4-3.02,18.67-2.73,9.2,4.58c2.72-0.09,15.05-0.12,10.27,5.13c7.01,0.94,9.2,4.3,4.43,10.12c2.24-0.4,5.9-1.59,7.82,0.2
						c1.69,1.92,0.21,5.32-1.31,7.03c2.58-1.45,7.39-4.43,9.93-1.55c3-4.55,9.2-9.45,14.77-9.99c6.15-0.58,4.45,4.09,1.18,7.07
						c3.17-2.06,10.81-5.48,14.29-3.13c3.6,2.57-2.74,6.12-5.21,7.21c4.02-0.53,10.78-0.03,13.09,3.55
						c2.56,4.58-3.41,8.78-7.41,10.45c2.83-0.44,10.2,0.59,9.55,4.39c-0.88,3.93-10.69,5.7-13.99,6.97
						c4.75,0.78,10.84,3.38,7.85,9.06c-0.68,1.28-1.66,2.39-2.83,3.32C246.61,129.27,244.89,127.13,243.12,125.7z"/>
				</g>
			</g>
			<g>
				<path class="st4" d="M194.38,137.95c3.9,0.03,21.39,35.52,21.39,50.3c0,14.77-16.62,39.89-35.74,41.51
					c-19.12,1.62-5.69-22.83-5.69-22.83L194.38,137.95z"/>
				<path class="st3" d="M206.1,156.61c3.09,18.58,5.22,37.31,0.75,54.93c5.51-7.79,8.93-16.6,8.93-23.3
					C215.77,180.63,211.13,167.53,206.1,156.61z"/>
			</g>
			<g>
				<path class="st1" d="M108.21,119.33c0,0,1.25-11.43-2.5-13.4c-3.75-1.97-12.81-4.4-17.22-7.49c-4.4-3.09-8.8-5.26-8.08-3.35
					c0.72,1.91,8.08,6.11,6.5,6.44c-1.58,0.33-12.94,1.31-18.33-0.59c-5.39-1.91-1.38,2.89,6.18,3.74c0,0,0.99,1.64,4.01,3.68
					c3.02,2.04,9.73,3.68,21.22,2.63l-0.79,12.29L108.21,119.33z"/>
				<g>
					<path class="st2" d="M79.99,105.14c2.76,0.29,5.53,0.2,8.31,0.19c0.16,0,0.16-0.25,0-0.25c-2.77,0.01-5.55,0.1-8.31-0.19
						C79.83,104.87,79.83,105.12,79.99,105.14L79.99,105.14z"/>
				</g>
				<path class="st1" d="M74.76,104.67c0,0-2.82-4.01,0-4.01c1.71,0,3.93,5.73,10.32,5.98c3.68,0.14,6.37-0.33,6.37-0.33"/>
				<g>
					<path class="st2" d="M86.47,106.83c-0.45,0-0.91-0.01-1.4-0.03c-4.25-0.17-6.7-2.74-8.32-4.44c-0.82-0.86-1.47-1.54-1.99-1.54
						c-0.52,0-0.85,0.14-1,0.43c-0.42,0.81,0.67,2.68,1.13,3.33c0.05,0.07,0.03,0.17-0.04,0.22c-0.07,0.05-0.17,0.03-0.22-0.04
						c-0.07-0.1-1.75-2.51-1.15-3.66c0.21-0.4,0.64-0.6,1.28-0.6c0.66,0,1.31,0.69,2.22,1.64c1.59,1.67,3.99,4.18,8.1,4.34
						c3.62,0.14,6.31-0.32,6.34-0.33c0.09-0.02,0.17,0.04,0.18,0.13c0.02,0.09-0.04,0.17-0.13,0.18
						C91.46,106.48,89.4,106.83,86.47,106.83z"/>
				</g>
				<path class="st2" d="M103.59,112.49c-1.21,0.55-2.49,1.17-3.8,1.75l-0.58,9.03l9-3.94c0,0,0.53-4.92-0.16-8.86
					C106.56,111.14,105.06,111.82,103.59,112.49z"/>
			</g>
			<g>
				<path class="st1" d="M166.61,175.56c0,0-4.28,25.13-16.34,33.11c0,0,9.11,14.78,33.51,10.19c0,0,9.79-16.64,12-37.36
					L166.61,175.56z"/>
				<path class="st2" d="M166.61,175.56c0,0-4.28,25.13-16.34,33.11c0,0,0.23,0.37,0.71,0.98c4.55-0.82,9.15-1.53,13.81-2.24
					c8.29-1.18,16.68-1.78,25.08-1.81c2.45-6.49,4.93-14.89,5.92-24.1L166.61,175.56z"/>
			</g>
			<path class="st3" d="M150.27,143.8c-3.26,1.03-28.87,13.25-37.53,12.74c0,0-0.34-15.62,1.53-25.64
				c1.87-10.02,1.87-15.85-5.09-15.91c-6.96-0.06-14.94,1.61-17.66,5.87c-2.72,4.26-7.47,50.45,0,56.73
				c7.47,6.28,48.84-7.81,57.03,6.79c0,0-4.36,15.24,2.92,14.77c7.28-0.46,28.61-3.87,37.4-1.51c8.79,2.36,15.25,5.61,17.28,1.52
				c2.04-4.09-4.25-30.41-3.57-38.9c0.68-8.49-3.97-18.56-8.49-22.08C188.09,133.53,173.37,136.5,150.27,143.8z"/>
			<g>
				<path class="st1" d="M215.77,353.32c0,0,1.98,26.07-1.51,33.97c0,0,3.11,2.85,10.75,0c0,0,3.09-21.02,5.29-33.97H215.77z"/>
				<path class="st2" d="M230.3,353.32h-14.53c0,0,0.58,7.69,0.56,15.99c4.08-1.07,8.1-2.38,12.01-3.94
					C229.01,361.15,229.69,356.93,230.3,353.32z"/>
				<g>
					<path class="st19" d="M213.48,386.52c0,0-4.41,8.16-2.59,9.33c1.81,1.17,11.14,2.2,14.64,3.37c3.5,1.17,13.35,4.08,26.69,4.41
						c5.31,0.13-17.74-12.91-20.85-15.76c-3.11-2.85-0.49-11.47,0.35-12.88c1.79-2.98-9.63-5.7-7.75,2.98c0,0-8.68-3.14-8.55-2.41
						C215.55,376.28,215.48,382.23,213.48,386.52z"/>
					<g>
						<path class="st20" d="M226.18,377.63c-1.11,7.97,0.32,19.28,10.05,20.56c0.82,0.11,0.81-1.17,0-1.28
							c-8.76-1.15-9.8-11.92-8.82-18.94C227.53,377.16,226.29,376.81,226.18,377.63L226.18,377.63z"/>
					</g>
					<path class="st20" d="M223.25,381.61c0,1.93-1.56,3.49-3.49,3.49c-1.93,0-3.49-1.56-3.49-3.49c0-1.93,1.56-3.49,3.49-3.49
						C221.69,378.12,223.25,379.68,223.25,381.61z"/>
					<g>
						<path class="st5" d="M225.79,379.36c1.89,0.04,3.73,0.43,5.57-0.15c0.6-0.19,0.34-1.13-0.26-0.94
							c-1.75,0.55-3.52,0.15-5.31,0.11C225.16,378.37,225.16,379.35,225.79,379.36z"/>
						<path class="st5" d="M230.84,383.58c-1.16,0.38-2.87,0.94-4.03,0.31c-0.55-0.3-1.05,0.54-0.49,0.84
							c1.43,0.77,3.34,0.26,4.78-0.21C231.7,384.33,231.44,383.39,230.84,383.58z"/>
						<path class="st5" d="M228.9,391.54c1.86-0.08,3.94-1.21,5.27-2.48c0.46-0.43-0.23-1.12-0.69-0.69
							c-1.14,1.08-2.99,2.12-4.58,2.19C228.27,390.59,228.27,391.56,228.9,391.54z"/>
						<path class="st5" d="M235.51,395.28c1.59-0.51,2.98-1.5,4.23-2.59c0.47-0.41-0.22-1.1-0.69-0.69
							c-1.12,0.97-2.38,1.88-3.8,2.34C234.65,394.53,234.91,395.47,235.51,395.28z"/>
						<path class="st5" d="M244.06,395.3c-2.91,1.07-4.21,3.7-4.78,5.45c-15.03-2.5-28.2-6.83-28.37-6.88
							c-0.76-0.25-1.6,0.16-1.85,0.93c-0.25,0.77,0.16,1.59,0.93,1.85c0.22,0.07,22.7,7.46,42.75,8.62c0.03,0,0.06,0,0.09,0
							c0.77,0,1.41-0.6,1.46-1.38C254.53,400.42,244.06,395.3,244.06,395.3z"/>
					</g>
				</g>
			</g>
			<g>
				<path class="st1" d="M131.81,363.57c0,0-3.71,19.6-2.78,29.13h-9.53c0,0-2.78-22.11-2.38-32.18L131.81,363.57z"/>
				<path class="st2" d="M131.81,363.57l-14.7-3.05c-0.15,3.78,0.15,9.25,0.58,14.61c4.27-0.68,8.5-1.57,12.67-2.7
					C131.09,367.38,131.81,363.57,131.81,363.57z"/>
				<g>
					<path class="st19" d="M115,396.83c0,0-3.47,8.82-1.49,9.78c1.98,0.96,11.58,0.87,15.27,1.63c3.69,0.76,14.04,2.51,27.62,1.21
						c5.41-0.52-19.58-10.93-23.08-13.44c-3.5-2.51-1.9-11.58-1.22-13.11c1.45-3.24-10.46-4.6-7.5,3.97c0,0-9.19-2.12-8.97-1.4
						C115.85,386.19,116.5,392.24,115,396.83z"/>
					<g>
						<path class="st20" d="M125.66,386.57c0.87,7.96,5.5,16.68,13.85,18.61c0.8,0.18,1.14-1.05,0.34-1.23
							c-7.77-1.79-12.1-9.97-12.92-17.38C126.85,385.76,125.58,385.75,125.66,386.57L125.66,386.57z"/>
					</g>
					<path class="st20" d="M123.74,391.54c0,1.93-1.56,3.49-3.49,3.49c-1.93,0-3.49-1.56-3.49-3.49c0-1.93,1.56-3.49,3.49-3.49
						C122.18,388.05,123.74,389.61,123.74,391.54z"/>
					<g>
						<path class="st5" d="M126.61,388.07c1.92-0.2,3.83-0.02,5.64-0.83c0.58-0.27,0.21-1.19-0.38-0.92
							c-1.71,0.77-3.55,0.58-5.38,0.76C125.85,387.14,125.97,388.13,126.61,388.07z"/>
						<path class="st5" d="M132.26,391.74c-1.13,0.53-2.8,1.3-4.05,0.81c-0.6-0.24-0.99,0.68-0.4,0.91c1.54,0.61,3.42-0.14,4.83-0.8
							C133.21,392.39,132.84,391.47,132.26,391.74z"/>
						<path class="st5" d="M131.26,400.05c1.88-0.3,3.85-1.71,5.04-3.15c0.41-0.5-0.37-1.11-0.78-0.62
							c-1.02,1.23-2.77,2.52-4.38,2.78C130.5,399.16,130.62,400.15,131.26,400.05z"/>
						<path class="st5" d="M138.42,403.03c1.55-0.72,2.85-1.88,3.98-3.14c0.43-0.48-0.36-1.09-0.78-0.62
							c-1.01,1.12-2.19,2.19-3.57,2.84C137.46,402.38,137.83,403.3,138.42,403.03z"/>
						<path class="st5" d="M147.1,402.01c-2.82,1.44-3.82,4.27-4.18,6.12c-15.55-0.71-29.45-3.48-29.63-3.52
							c-0.81-0.16-1.6,0.36-1.76,1.17c-0.16,0.81,0.36,1.6,1.17,1.76c0.24,0.05,23.94,4.8,44.43,3.53c0.03,0,0.06,0,0.09-0.01
							c0.78-0.09,1.36-0.78,1.31-1.58C158.34,405.92,147.1,402.01,147.1,402.01z"/>
					</g>
				</g>
			</g>
			<path class="st4" d="M165.74,163.2c-17.56,4.92-42.15,14.75-59.71,5.62c-17.47-8.73-14.67-32.42-11.6-50.67
				c-1.23,0.75-2.24,1.65-2.91,2.71c-2.72,4.26-7.47,50.45,0,56.73c7.47,6.28,48.84-7.81,57.03,6.79c0,0-4.36,15.24,2.92,14.77
				c7.28-0.46,28.61-3.87,37.4-1.51c8.79,2.36,15.25,5.61,17.28,1.52c0.14-0.29,0.24-0.71,0.31-1.21
				C188.65,188.53,158.47,183.56,165.74,163.2z"/>
			<g>
				<g>
					<g>
						<path class="st21" d="M109.07,362.98c4.65,8.85,15.9,9.08,24.56,7.71c3.25-0.51,1.86-5.44-1.36-4.93
							c-6.37,1.01-15.33,1.23-18.78-5.36C111.96,357.48,107.54,360.06,109.07,362.98L109.07,362.98z"/>
					</g>
					<g>
						<path class="st22" d="M131.69,367.29c0.01,0.69,0.06,1.35-0.18,2.01c-0.29,0.77,0.95,1.1,1.23,0.34
							c0.29-0.77,0.24-1.54,0.23-2.35C132.96,366.46,131.68,366.46,131.69,367.29z"/>
						<path class="st22" d="M128.48,367.5c-0.09,0.69-0.12,1.38-0.21,2.07c-0.11,0.82,1.17,0.81,1.28,0
							c0.09-0.69,0.12-1.39,0.21-2.07C129.87,366.68,128.59,366.69,128.48,367.5z"/>
						<path class="st22" d="M123.84,367.22c-0.13,0.93-0.41,1.82-0.44,2.76c-0.02,0.83,1.25,0.82,1.28,0
							c0.02-0.82,0.28-1.61,0.39-2.42C125.19,366.76,123.95,366.41,123.84,367.22z"/>
						<path class="st22" d="M120.27,366.14c-0.58,1.02-1.18,2.02-1.23,3.22c-0.03,0.83,1.25,0.82,1.28,0
							c0.04-0.95,0.6-1.77,1.05-2.58C121.78,366.06,120.68,365.42,120.27,366.14z"/>
						<path class="st22" d="M116.43,365.18c-0.93,0.84-1.65,1.82-2.13,2.98c-0.32,0.76,0.92,1.09,1.23,0.34
							c0.4-0.94,1.05-1.74,1.81-2.41C117.95,365.53,117.04,364.63,116.43,365.18z"/>
						<path class="st22" d="M114.07,362.28c-1.17,0.83-2.24,1.72-2.78,3.08c-0.3,0.77,0.93,1.1,1.23,0.34
							c0.4-1.01,1.34-1.71,2.19-2.31C115.39,362.91,114.75,361.8,114.07,362.28z"/>
						<path class="st22" d="M111.14,359.89c-0.67,0.56-1.3,1.14-1.76,1.89c-0.43,0.71,0.68,1.35,1.1,0.64
							c0.4-0.66,0.97-1.14,1.56-1.63C112.68,360.26,111.77,359.36,111.14,359.89z"/>
					</g>
				</g>
				<g>
					<g>
						<path class="st21" d="M210.78,359.25c2.58,2.28,5.72,3.28,9.07,3.83c3.69,0.6,7.81,1.19,11.35-0.26
							c3.01-1.24,1.69-6.19-1.36-4.93c-4.03,1.66-12.1,0.72-15.45-2.25C211.93,353.45,208.3,357.06,210.78,359.25L210.78,359.25z"/>
					</g>
					<g>
						<path class="st22" d="M212.66,355.87c-0.51,0.92-0.88,1.81-0.69,2.88c0.15,0.81,1.38,0.47,1.23-0.34
							c-0.13-0.69,0.23-1.31,0.56-1.89C214.17,355.8,213.06,355.16,212.66,355.87z"/>
						<path class="st22" d="M215.15,357.22c-0.59,0.88-0.8,1.84-0.58,2.88c0.17,0.81,1.4,0.46,1.23-0.34
							c-0.15-0.7,0.06-1.31,0.45-1.89C216.71,357.18,215.6,356.54,215.15,357.22z"/>
						<path class="st22" d="M218.5,358.72c-0.21,0.84-0.42,1.68-0.44,2.55c-0.02,0.82,1.26,0.82,1.28,0
							c0.02-0.76,0.21-1.48,0.39-2.22C219.94,358.26,218.71,357.92,218.5,358.72z"/>
						<path class="st22" d="M221.59,359.41c0.09,0.76,0.1,1.52,0.1,2.28c0,0.82,1.28,0.82,1.28,0c0-0.76-0.02-1.52-0.1-2.28
							C222.78,358.6,221.5,358.59,221.59,359.41z"/>
						<path class="st22" d="M225.53,359.62c0.02,0.76,0.21,1.49,0.33,2.24c0.13,0.81,1.36,0.47,1.23-0.34
							c-0.1-0.64-0.27-1.26-0.29-1.9C226.79,358.8,225.51,358.79,225.53,359.62z"/>
						<path class="st22" d="M229.39,358.54c0.19,0.73,0.46,1.49,0.31,2.25c-0.16,0.8,1.07,1.15,1.23,0.34
							c0.2-1.01-0.06-1.95-0.31-2.93C230.42,357.41,229.19,357.74,229.39,358.54z"/>
					</g>
				</g>
				<path class="st7" d="M153.5,203.07c0,0,13.76,12.23,36.17,12.4c0,0-6.62,15.96-4.93,18c0,0,52.81,43.48,56.72,66.06
					c3.91,22.59-6.79,59.44-12.4,60.79c-5.6,1.36-13.92,0.17-17.32-3.57c-3.4-3.74-8.49-31.24,1.7-48.23c0,0-39.23-41.61-54-47.72
					c0,0-10.19,38.04-10.19,54.68c0,16.64-6.25,45.01-17.83,52.14c-2.21,1.36-17.49,2.55-21.23-9.68
					c-3.74-12.23,9.68-44.15,9.68-44.15s-9.68-53.83-5.09-78.8C119.36,210.03,153.5,203.07,153.5,203.07z"/>
				<path class="st6" d="M127.26,279.66c-1.33-14.86-3.33-31.72,0.89-46.58c3.77-12.86,13.75-13.53,25.73-13.09
					c12.5,0.67,23.84-0.71,35.48-3.76c0.2-0.49,0.32-0.78,0.32-0.78c-22.42-0.17-36.17-12.4-36.17-12.4s-34.14,6.96-38.72,31.93
					c-4.58,24.96,5.09,78.8,5.09,78.8s-0.54,1.28-1.36,3.41c2.58-3.76,5.55-7.12,8.08-10.92
					C131.25,298.96,128.14,287.87,127.26,279.66z"/>
				<path class="st6" d="M225.29,337.78c-1.77-11.31,1.77-20.41,4.21-31.05c2.44-10.43-7.32-13.97-15.3-17.74
					c-10.87-4.88-49.52-30.61-54.79-36.38c0,2.88-0.11,5.76-0.09,8.64c0.08-0.29,0.12-0.44,0.12-0.44c14.77,6.11,54,47.72,54,47.72
					c-10.19,16.98-5.1,44.49-1.7,48.23c3.4,3.74,11.72,4.92,17.32,3.57c1.43-0.34,3.19-3.01,4.96-7.15
					C229.53,349.77,226.38,344.99,225.29,337.78z"/>
				<g>
					<g>
						<path class="st21" d="M151.47,203.81c4.57,4.41,10.08,7.44,16.06,9.47c7.14,2.43,14.5,5.23,22.04,6
							c3.28,0.34,3.25-4.78,0-5.11c-6.31-0.65-12.45-3.14-18.44-5.1c-5.98-1.96-11.46-4.45-16.04-8.87
							C152.71,197.91,149.09,201.52,151.47,203.81L151.47,203.81z"/>
					</g>
					<g>
						<path class="st22" d="M153.99,200.83c-0.95,0.62-1.67,1.45-1.95,2.56c-0.2,0.8,1.03,1.14,1.23,0.34
							c0.2-0.79,0.69-1.35,1.37-1.8C155.33,201.49,154.69,200.38,153.99,200.83z"/>
						<path class="st22" d="M156.98,202.72c-0.58,0.91-1.2,1.75-1.62,2.75c-0.32,0.76,0.92,1.09,1.23,0.34
							c0.37-0.88,0.98-1.64,1.49-2.44C158.53,202.67,157.42,202.03,156.98,202.72z"/>
						<path class="st22" d="M159.82,205.26c-0.34,0.87-0.81,1.68-1.04,2.59c-0.2,0.8,1.03,1.14,1.23,0.34
							c0.23-0.91,0.7-1.72,1.04-2.59C161.35,204.83,160.12,204.5,159.82,205.26z"/>
						<path class="st22" d="M164.24,207.18c-0.42,0.91-0.93,1.78-1.35,2.7c-0.34,0.74,0.76,1.39,1.1,0.65
							c0.42-0.91,0.93-1.78,1.35-2.7C165.68,207.08,164.58,206.43,164.24,207.18z"/>
						<path class="st22" d="M168.63,209.51c-0.23,0.99-0.83,1.84-1.14,2.8c-0.26,0.79,0.98,1.12,1.23,0.34
							c0.31-0.96,0.91-1.8,1.14-2.8C170.05,209.05,168.82,208.71,168.63,209.51z"/>
						<path class="st22" d="M172.86,211.24c0.05,0.98-0.59,1.84-0.91,2.73c-0.28,0.78,0.96,1.11,1.23,0.34
							c0.37-1.03,1.01-1.93,0.96-3.07C174.1,210.42,172.82,210.41,172.86,211.24z"/>
						<path class="st22" d="M177.63,212.17c-0.03,1.03-0.57,1.91-1.05,2.79c-0.4,0.72,0.7,1.37,1.1,0.65
							c0.61-1.08,1.19-2.16,1.23-3.43C178.93,211.34,177.66,211.35,177.63,212.17z"/>
						<path class="st22" d="M182.4,214.04c0.07,0.99-0.27,1.89-0.85,2.68c-0.48,0.67,0.63,1.31,1.1,0.65
							c0.69-0.96,1.1-2.14,1.02-3.33C183.62,213.22,182.34,213.21,182.4,214.04z"/>
						<path class="st22" d="M187.4,215.35c0.15,0.82,0.2,1.8-0.35,2.49c-0.51,0.64,0.39,1.55,0.9,0.9c0.87-1.09,0.93-2.4,0.68-3.73
							C188.48,214.2,187.25,214.54,187.4,215.35z"/>
					</g>
				</g>
			</g>
			<g>
				<g>
					<g>
						<path class="st1" d="M176.31,118.9c0,0,0.93,15.28,9.17,18.48c0,0-1.43,7.14-9.27,8.76c-7.84,1.62-11.98-4.37-11.98-4.37
							c6.3-6.21,1.09-20.6,1.09-20.6L176.31,118.9z"/>
						<path class="st2" d="M176.31,118.9l-10.99,2.27c0,0,1.54,4.25,1.93,9.13c3.58-1.93,6.74-4.27,9.7-6.81
							C176.43,120.84,176.31,118.9,176.31,118.9z"/>
					</g>
					<g>
						<path class="st4" d="M163.37,141.6c2.49,3.72,7.42,5.15,11.75,5.09c5.56-0.09,8.99-3.62,10.77-8.65
							c0.27-0.77-0.9-1.29-1.17-0.51c-1.48,4.2-4.12,7.42-8.79,7.88c-4.07,0.4-9.22-1.12-11.54-4.57
							C163.93,140.15,162.91,140.92,163.37,141.6L163.37,141.6z"/>
					</g>
				</g>
				<g>
					<path class="st1" d="M184.16,104.23c-0.36,4.04-1.74,11.37-12.38,17.96c-10.64,6.59-15.91,1.94-19.71-4.18
						c-3.8-6.11-3.16-11.54-2.11-14.41c0,0-4.23-13.22,1.36-19.53c5.6-6.3,16.73-9.59,22.35-4.91
						C181.04,85.31,185.04,94.48,184.16,104.23z"/>
					<g>
						<path class="st23" d="M155.02,103.34c-0.42,0.51-1.74,0.67-1.24,1.78c0.53,1.18,2.12,1.83,3.3,1.92
							c0.36,0.02,0.35,0.59-0.01,0.57c-1.7-0.12-3.95-1.25-4.03-3.19c-0.01-0.21,0.2-0.46,0.34-0.57c0.75-0.58,1.37-0.98,1.91-1.83
							c1.25-1.95,0.72-4.7,0.23-6.79c-0.08-0.36,0.47-0.49,0.55-0.14c0.48,2.02,0.72,4.02,0.2,6.06
							C156.06,101.98,155.56,102.68,155.02,103.34z"/>
						<path class="st17" d="M170.17,90.12c-2.11-1.19-4.67-1.39-6.93-0.52c-0.34,0.13-0.47-0.42-0.14-0.55
							c2.39-0.91,5.13-0.67,7.35,0.59C170.78,89.81,170.49,90.3,170.17,90.12z"/>
						<path class="st17" d="M150.99,93.51c-0.75,0.3-1.43,0.71-1.86,1.41c-0.19,0.31-0.68,0.03-0.49-0.29
							c0.48-0.79,1.23-1.28,2.07-1.62C151.04,92.89,151.32,93.38,150.99,93.51z"/>
						<path class="st17" d="M161.88,99.64c-0.1-0.06-0.03-0.2,0.08-0.18c4.3,0.67,9.25-2.54,13.36-3.71
							c0.09-0.03,0.13,0.1,0.06,0.15C171.27,98.52,166.79,102.46,161.88,99.64z"/>
						<path class="st17" d="M153.8,102.46c-0.82,0.79-1.43,1.63-2.54,2.03c-1.01,0.37-2.24-0.19-2.99-0.86
							c-0.15-0.14-0.03-0.43,0.18-0.41c1.02,0.11,1.7-0.17,2.66-0.42c0.87-0.23,1.75-0.36,2.66-0.44
							C153.81,102.36,153.84,102.43,153.8,102.46z"/>
						<path class="st24" d="M154.98,114.46c2.02-0.31,3.98-0.08,6-0.64c2.99-0.83,5.97-2.77,8.31-4.75
							c0.08-0.07,0.18,0.03,0.11,0.11c-3.24,3.99-9.04,8.12-14.43,5.93C154.69,115,154.61,114.51,154.98,114.46z"/>
						<g>
							<path class="st25" d="M171.05,99.57c1.25-1,2.89-2.2,4.52-2.39c2.6-0.29,4.42,2.26,2.83,4.52c-2.72,3.85-7.06,5.18-8.63,3.32
								C168.16,103.1,169.35,100.95,171.05,99.57z"/>
							<path class="st25" d="M149.59,104.78c0.88,0.21,2.9,1.63,3.05,2.67c0.24,1.64-0.38,3.13-2.08,3.64
								c-0.38,0.11-0.78,0.12-1.17,0.07C148.96,108.64,149.17,106.44,149.59,104.78z"/>
						</g>
					</g>
				</g>
				<g>
					<path class="st1" d="M183.86,98.64c0,0,4.94-6.65,8.65-4.36c5.49,3.4,0.09,16.94-11.55,14.74L183.86,98.64z"/>
					<path class="st23" d="M183.98,106.73c0.05-0.17,0.1-0.34,0.16-0.51c1.56,0.78,3.68,1.21,4.52-0.8c0.75-1.81-0.91-2.9-2.42-3.22
						c0.15-0.18,0.31-0.35,0.48-0.51c1.77-1.69,3.77-2.06,6.11-2.11c0.37-0.01,0.32-0.57-0.04-0.57c-3.16,0.06-5.5,1.17-7.14,3.17
						c-0.01,0.01-0.01,0.02-0.03,0.03c-0.77,0.95-1.39,2.09-1.86,3.42c-0.02,0.03-0.03,0.06-0.04,0.09c-0.1,0.29-0.2,0.59-0.29,0.9
						C183.31,106.99,183.88,107.08,183.98,106.73z M184.31,105.68c0.37-1.05,0.85-2.08,1.51-2.97c0.62,0.08,1.33,0.21,1.8,0.64
						c0.62,0.57,0.84,1.66,0.23,2.34C186.84,106.81,185.46,106.29,184.31,105.68z"/>
				</g>
			</g>
		</g>
		<g>
			<g>
				<g>
					<path class="st26" d="M403.33,210.76c0,0,4.96,2.58,7.42,1.54c2.46-1.03,18.82-7.83,20.8-8.69c1.98-0.86,1.06,0.89-0.76,2.27
						c-1.98,1.5-7.38,4.2-10.27,6.4c-2.89,2.19-8.93,5.75-7.93,6.36c1,0.61,9.07,0.13,10.9,2.89c0.48,0.73-3.88,0.02-7.48,0.91
						c-3.6,0.89-7.06,1.16-9.67-2.47l-7.07-2L403.33,210.76z"/>
					<path class="st14" d="M358.16,148.04c0,0,35.04,50.57,46.45,54.73c11.41,4.15,4.48,23.95-2.85,24.65
						c-7.33,0.7-35.86-32.69-39.93-51.86C357.75,156.39,358.16,148.04,358.16,148.04z"/>
					<path class="st16" d="M404.61,202.77c-7.91-2.88-27.2-28.09-38.27-43.27c4.47,15.59,12.17,27.22,23.52,40.19
						c6.3,7.09,12.12,14.65,18.78,21.23C411.7,214.55,411.94,205.44,404.61,202.77z"/>
				</g>
				<g>
					<path class="st26" d="M327.57,186.29c0,0,9.35,12.58,7.57,22.82l27.6,5.94c0,0,3.7-15.96-2.38-32.77L327.57,186.29z"/>
					<path class="st27" d="M327.57,186.29c0,0,4.84,6.52,6.89,13.99c9.29-3.08,18.92-5.55,28.63-7.25
						c-0.53-3.44-1.4-7.07-2.73-10.75L327.57,186.29z"/>
				</g>
				<g>
					<g>
						<path class="st26" d="M354.43,348.14c0,0,3.37,28.4,2.6,41.55c0,0,7.89,2.34,12.62-0.2l3.38-40.38L354.43,348.14z"/>
						<path class="st27" d="M354.43,348.14c0,0,1.52,12.81,2.29,25.21c4.67-2.48,9.64-4.35,14.77-5.7l1.55-18.54L354.43,348.14z"/>
					</g>
					<g>
						<path class="st7" d="M354.94,397.16c0,0-3.38,8.99-1.36,9.93c2.02,0.94,11.74,0.7,15.49,1.42c3.75,0.71,14.26,2.32,28,0.8
							c5.47-0.61-20-10.78-23.59-13.27c-3.59-2.49-2.1-11.7-1.44-13.26c1.42-3.3-10.67-4.5-7.53,4.14c0,0-9.35-2.01-9.11-1.28
							C355.64,386.37,356.4,392.49,354.94,397.16z"/>
						<g>
							<path class="st6" d="M366.48,385.98c-0.16,8.5,6.24,14.44,13.79,17.16c0.72,0.26,1.02-0.88,0.31-1.14
								c-7.04-2.54-13.07-8.06-12.92-16.02C367.67,385.22,366.5,385.22,366.48,385.98L366.48,385.98z"/>
						</g>
						<path class="st6" d="M363.73,392.72c0,1.78-1.44,3.21-3.22,3.21c-1.78,0-3.22-1.44-3.22-3.21c0-1.78,1.44-3.22,3.22-3.22
							C362.29,389.5,363.73,390.94,363.73,392.72z"/>
						<g>
							<path class="st5" d="M366.57,388.11c1.95-0.23,3.88-0.08,5.7-0.93c0.59-0.28,0.19-1.21-0.4-0.93
								c-1.72,0.81-3.59,0.64-5.43,0.86C365.79,387.18,365.93,388.18,366.57,388.11z"/>
							<path class="st5" d="M372.35,391.73c-1.14,0.55-2.82,1.36-4.09,0.88c-0.61-0.23-1,0.7-0.39,0.93
								c1.57,0.59,3.46-0.2,4.88-0.88C373.33,392.38,372.94,391.45,372.35,391.73z"/>
							<path class="st5" d="M371.46,400.17c1.9-0.34,3.87-1.8,5.06-3.28c0.41-0.51-0.4-1.12-0.8-0.61c-1.02,1.27-2.77,2.6-4.39,2.89
								C370.69,399.28,370.82,400.28,371.46,400.17z"/>
							<path class="st5" d="M378.76,403.09c1.56-0.75,2.85-1.95,3.98-3.24c0.43-0.49-0.38-1.1-0.8-0.61
								c-1.01,1.15-2.18,2.25-3.57,2.92C377.78,402.43,378.18,403.37,378.76,403.09z"/>
							<path class="st5" d="M387.54,401.92c-2.83,1.5-3.81,4.38-4.14,6.26c-15.77-0.48-29.89-3.08-30.07-3.11
								c-0.82-0.15-1.62,0.39-1.77,1.21c-0.15,0.83,0.39,1.61,1.21,1.77c0.24,0.04,24.33,4.49,45.06,2.89
								c0.03,0,0.06-0.01,0.09-0.01c0.79-0.11,1.37-0.81,1.3-1.62C398.99,405.71,387.54,401.92,387.54,401.92z"/>
						</g>
					</g>
				</g>
				<g>
					<g>
						<path class="st26" d="M284.11,321.43l-12.91,17.92c0,0,1.1,7.55,7.03,6.75c0,0,15.52-12.07,21.9-17.78
							C306.51,322.61,284.11,321.43,284.11,321.43z"/>
						<path class="st27" d="M284.11,321.43l-10.13,14.06c4.99,0.93,10.02,1.66,15.06,2.05c4.09-3.28,8.4-6.82,11.09-9.22
							C306.51,322.61,284.11,321.43,284.11,321.43z"/>
					</g>
					<g>
						<path class="st7" d="M262,343.8c0,0-9.02,3.3-8.42,5.45c0.61,2.15,7.12,9.36,9.03,12.67c1.91,3.31,7.54,12.33,17.66,21.74
							c4.03,3.75-4.88-22.19-5.34-26.53c-0.45-4.35,7.5-9.23,9.11-9.74c3.43-1.08-3.55-11.02-8.05-3.01c0,0-4.57-8.39-4.97-7.74
							C270.64,337.29,266.5,341.85,262,343.8z"/>
						<g>
							<path class="st6" d="M277.23,344.49c-5.57,5.48-6.05,13.84-4,21.01c0.21,0.73,1.35,0.42,1.14-0.31
								c-1.94-6.77-1.59-14.67,3.69-19.86C278.6,344.79,277.77,343.96,277.23,344.49L277.23,344.49z"/>
						</g>
						<path class="st6" d="M272.49,344.32c0,1.78-1.44,3.22-3.22,3.22c-1.78,0-3.22-1.44-3.22-3.22c0-1.78,1.44-3.22,3.22-3.22
							C271.05,341.1,272.49,342.54,272.49,344.32z"/>
						<g>
							<path class="st5" d="M276.46,346.71c1.44,1.32,2.59,2.89,4.42,3.71c0.59,0.26,1.04-0.64,0.44-0.91
								c-1.74-0.78-2.83-2.3-4.19-3.56C276.65,345.51,275.98,346.26,276.46,346.71z"/>
							<path class="st5" d="M277.47,353.45c-1.16-0.51-2.87-1.25-3.33-2.53c-0.23-0.61-1.18-0.3-0.96,0.32
								c0.58,1.57,2.41,2.49,3.85,3.12C277.62,354.62,278.07,353.71,277.47,353.45z"/>
							<path class="st5" d="M270.51,358.28c1.49,1.22,3.89,1.76,5.78,1.7c0.65-0.02,0.59-1.03-0.06-1.01
								c-1.62,0.05-3.78-0.41-5.05-1.45C270.68,357.11,270,357.87,270.51,358.28z"/>
							<path class="st5" d="M273.06,365.72c1.59,0.69,3.34,0.89,5.06,0.9c0.65,0.01,0.59-1-0.06-1c-1.53-0.01-3.13-0.18-4.55-0.8
								C272.91,364.55,272.46,365.46,273.06,365.72z"/>
							<path class="st5" d="M279.67,371.61c-2.99-1.17-5.8-0.03-7.45,0.95c-9.92-12.26-17.16-24.66-17.26-24.82
								c-0.42-0.72-1.35-0.97-2.07-0.55c-0.73,0.42-0.97,1.34-0.55,2.07c0.12,0.21,12.47,21.37,27.21,36.04
								c0.02,0.02,0.04,0.04,0.06,0.06c0.59,0.53,1.51,0.51,2.08-0.06C284.27,382.76,279.67,371.61,279.67,371.61z"/>
						</g>
					</g>
				</g>
				<g>
					<g>
						<g>
							<path class="st28" d="M352.32,360.26c7.26,3.91,15.52,3.16,22.65-0.67c2.68-1.44,0.3-5.51-2.38-4.07
								c-5.6,3.01-12.15,3.75-17.89,0.67C352.02,354.74,349.64,358.81,352.32,360.26L352.32,360.26z"/>
						</g>
						<g>
							<path class="st29" d="M354.15,356.78c-0.48,1-0.74,2.03-0.29,3.08c0.3,0.7,1.32,0.09,1.02-0.6
								c-0.26-0.61,0.02-1.33,0.29-1.89C355.49,356.69,354.48,356.09,354.15,356.78z"/>
							<path class="st29" d="M356.96,357.97c-0.3,1.06-0.38,2.1-0.19,3.18c0.13,0.75,1.27,0.43,1.14-0.31
								c-0.15-0.87-0.05-1.71,0.19-2.55C358.3,357.55,357.17,357.24,356.96,357.97z"/>
							<path class="st29" d="M360.67,358.99c-0.12,0.9-0.24,1.74-0.08,2.64c0.14,0.75,1.28,0.43,1.14-0.32
								c-0.14-0.77,0.02-1.56,0.12-2.33C361.95,358.23,360.76,358.24,360.67,358.99z"/>
							<path class="st29" d="M365.19,358.89c-0.02-0.76-1.2-0.76-1.18,0c0.02,0.82,0.19,1.6,0.5,2.36c0.28,0.69,1.42,0.39,1.14-0.31
								C365.38,360.27,365.21,359.61,365.19,358.89z"/>
							<path class="st29" d="M367,359.05c0.11,0.75,0.36,1.48,0.46,2.23c0.1,0.74,1.28,0.75,1.18,0c-0.11-0.86-0.37-1.69-0.5-2.55
								C368.02,357.98,366.89,358.3,367,359.05z"/>
							<path class="st29" d="M371.19,357.59c-0.19-0.74-1.33-0.42-1.14,0.31c0.21,0.8,0.48,1.58,0.67,2.39
								c0.17,0.74,1.31,0.43,1.14-0.31C371.67,359.17,371.4,358.39,371.19,357.59z"/>
							<path class="st29" d="M372.98,356.61c0.42,0.67,0.92,1.36,0.88,2.19c-0.04,0.76,1.14,0.76,1.18,0
								c0.06-1.04-0.51-1.93-1.04-2.78C373.6,355.37,372.58,355.96,372.98,356.61z"/>
						</g>
					</g>
					<g>
						<g>
							<path class="st28" d="M276.56,326.34c0.75,4.64,4.23,7.27,8.55,8.48c4.51,1.27,10.07,1.59,14.32-0.57
								c2.71-1.38,0.32-5.45-2.38-4.07c-2.95,1.5-6.81,0.86-9.94,0.27c-3.13-0.6-5.48-2.08-6.01-5.36
								C280.63,322.09,276.08,323.36,276.56,326.34L276.56,326.34z"/>
						</g>
						<g>
							<path class="st29" d="M297.37,331.07c0.09,0.79,0.28,1.63,0.12,2.43c-0.16,0.74,0.98,1.06,1.14,0.31
								c0.19-0.92,0.03-1.82-0.07-2.74C298.46,330.32,297.28,330.31,297.37,331.07z"/>
							<path class="st29" d="M294.41,332.31c0,0.79,0,1.58-0.4,2.28c-0.38,0.66,0.64,1.25,1.02,0.59c0.51-0.89,0.56-1.88,0.56-2.88
								C295.59,331.55,294.41,331.55,294.41,332.31z"/>
							<path class="st29" d="M292.1,332.3c-0.48,0.69-0.81,1.46-1.11,2.24c-0.27,0.71,0.87,1.02,1.14,0.31
								c0.26-0.7,0.57-1.35,0.99-1.96C293.55,332.27,292.53,331.68,292.1,332.3z"/>
							<path class="st29" d="M288.46,331.7c-0.69,0.63-1.07,1.41-1.39,2.27c-0.27,0.71,0.87,1.02,1.14,0.31
								c0.26-0.67,0.55-1.26,1.09-1.75C289.86,332.02,289.02,331.19,288.46,331.7z"/>
							<path class="st29" d="M284.06,330.65c-0.57,0.67-1.14,1.31-1.4,2.17c-0.21,0.73,0.92,1.04,1.14,0.31
								c0.19-0.66,0.66-1.14,1.09-1.65C285.38,330.91,284.55,330.07,284.06,330.65z"/>
							<path class="st29" d="M281.03,328.26c-0.82,0.37-1.55,0.88-2.03,1.65c-0.41,0.65,0.61,1.24,1.02,0.59
								c0.37-0.59,0.98-0.94,1.61-1.22C282.32,328.97,281.72,327.96,281.03,328.26z"/>
							<path class="st29" d="M279.59,324.92c-0.82,0.41-1.61,0.84-2.32,1.43c-0.59,0.49,0.25,1.32,0.83,0.83
								c0.63-0.52,1.36-0.88,2.08-1.25C280.87,325.59,280.27,324.58,279.59,324.92z"/>
						</g>
					</g>
					<path class="st29" d="M337.08,201.3c0,0-17.81,2.74-25.3,20.5c-7.5,17.77-0.81,76.91-4.86,76.98
						c-4.06,0.08-25.25,5.32-28.04,20.82c-2.78,15.5,10.49,13.13,22.57,11.54c12.08-1.59,29.44-4.38,32.49-17.88
						c3.05-13.5,9.72-61.34,9.72-61.34s13.22,42.03,8.69,56.92c-4.53,14.89-11.66,43.32,2.19,49.42
						c13.84,6.09,27.65-2.09,26.07-28.8c-1.58-26.71-7.81-66.45-6.86-81.67c0.96-15.22-3.35-36.86-7.5-40.58
						C362.09,203.49,341.4,200.13,337.08,201.3z"/>
					<g>
						<path class="st28" d="M332.91,204.07c6.5-1.03,12.94-0.08,19.23,1.67c5.46,1.52,11.27,3.02,16.05,6.13
							c2.56,1.66,4.92-2.43,2.38-4.07c-5.43-3.52-12.06-5.18-18.23-6.89c-6.77-1.88-13.74-2.48-20.68-1.37
							C328.66,200,329.93,204.54,332.91,204.07L332.91,204.07z"/>
						<g>
							<path class="st29" d="M333.05,200.23c0.13-0.74-1-1.06-1.14-0.31c-0.25,1.4-0.46,2.98,0.85,3.92
								c0.62,0.44,1.21-0.58,0.59-1.02C332.59,202.28,332.91,201,333.05,200.23z"/>
							<path class="st29" d="M335.35,199.95c0.17,0.84,0.34,1.7,0.19,2.55c-0.13,0.74,1.01,1.06,1.14,0.31
								c0.18-1.08,0.02-2.12-0.19-3.18C336.34,198.89,335.2,199.21,335.35,199.95z"/>
							<path class="st29" d="M338.89,199.95c0.23,0.83,0.27,1.66,0.27,2.52c0,0.76,1.18,0.76,1.18,0c0-0.96-0.05-1.9-0.31-2.83
								C339.82,198.9,338.68,199.21,338.89,199.95z"/>
							<path class="st29" d="M342.81,200.71c0.15,0.9-0.01,1.81-0.02,2.71c-0.01,0.76,1.17,0.76,1.18,0
								c0.02-1.02,0.15-2.01-0.02-3.02C343.82,199.65,342.68,199.97,342.81,200.71z"/>
							<path class="st29" d="M347.21,201.19c0.14,0.79-0.11,1.59-0.29,2.36c-0.17,0.74,0.97,1.05,1.14,0.31
								c0.23-1,0.47-1.96,0.29-2.99C348.21,200.13,347.07,200.45,347.21,201.19z"/>
							<path class="st29" d="M351.7,202.15c0.13,0.77-0.08,1.53-0.42,2.22c-0.33,0.68,0.69,1.28,1.02,0.6
								c0.48-1,0.72-2.02,0.54-3.13C352.71,201.08,351.58,201.4,351.7,202.15z"/>
							<path class="st29" d="M356.85,205.78c0.33-0.87,0.77-1.75,0.57-2.7c-0.16-0.74-1.29-0.43-1.14,0.31
								c0.14,0.67-0.34,1.47-0.57,2.08C355.44,206.18,356.58,206.48,356.85,205.78z"/>
							<path class="st29" d="M360.02,203.94c-0.19,0.98-0.46,1.92-0.9,2.82c-0.33,0.68,0.68,1.28,1.02,0.6
								c0.48-0.99,0.81-2.02,1.02-3.11C361.3,203.51,360.16,203.19,360.02,203.94z"/>
							<path class="st29" d="M363.53,205.72c0.05,0.83-0.42,1.48-0.78,2.19c-0.35,0.67,0.67,1.27,1.02,0.6
								c0.46-0.9,1-1.73,0.94-2.78C364.67,204.96,363.49,204.96,363.53,205.72z"/>
							<path class="st29" d="M367.48,207.19c-0.23,0.64-0.38,1.37-0.9,1.84c-0.56,0.52,0.28,1.35,0.83,0.83
								c0.68-0.62,0.9-1.53,1.2-2.36C368.87,206.78,367.73,206.48,367.48,207.19z"/>
						</g>
					</g>
					<path class="st28" d="M302.01,306.56c6.34,0.33,12.87,3.91,13.2-5.09c0.33-9.67-1.19-21.58-3.2-31.25
						c-4.47-20.52-4.16-40.2,5.33-57.42c-2.12,2.46-4.05,5.42-5.56,9.01c-7.5,17.77-0.81,76.91-4.86,76.98
						c-2.89,0.06-14.43,2.73-21.86,9.83C290.2,306.97,295.74,306.27,302.01,306.56z"/>
					<path class="st28" d="M367.04,323.56c3.67-11.34,2-21.34-1.33-32.34c-3.67-11.67-7.67-23.34-8.67-35.68
						c-0.67-7.67,0.67-15.67-0.67-23.34c-6.68,7.79-11.04,11.58-12.69,19.78c0.38,1.23,13.13,42.19,8.68,56.86
						c-4.53,14.89-11.66,43.32,2.19,49.42c0.51,0.23,1.02,0.42,1.53,0.61c0.13-2.83,0.82-6,1.96-9.62
						C360.7,340.57,364.37,332.23,367.04,323.56z"/>
				</g>
				<g>
					<path class="st26" d="M261.27,224.99c0,0-2.71,4.88-5.34,5.38c-2.62,0.5-20.01,3.85-22.14,4.23c-2.12,0.37-0.4,1.33,1.89,1.48
						c2.48,0.16,8.47-0.57,12.09-0.33c3.62,0.23,10.62-0.13,10.12,0.92c-0.5,1.06-7.49,5.12-7.49,8.43c0,0.88,3.25-2.12,6.74-3.37
						c3.5-1.25,6.53-2.92,6.7-7.39l4.79-5.57L261.27,224.99z"/>
					<path class="st16" d="M255.66,216.29c-4.92,11.12,16.11,21.26,24.26,18.38c8.15-2.88,28.93-53.54,36.27-56.98
						c0,0,3.67,14.19,14.67,13.19c11-1,33.42,1.83,37.49,0c4.07-1.83-4.08-34.07-8.56-43.84c-4.48-9.77-15.08-14.66-26.89-13.03
						c-11.82,1.62-28.93,9.43-37.49,29.57C286.85,183.71,263.09,199.49,255.66,216.29z"/>
					<path class="st14" d="M326.17,155.3c-14.8,13.51-23.16,30.24-35.39,45.04c-10.07,12.94-19.06,27.3-32.31,26.87
						c5.55,5.75,16.18,9.33,21.44,7.47c8.15-2.88,28.93-53.54,36.27-56.98c0,0,3.67,14.19,14.67,13.19
						c4.94-0.45,12.19-0.13,19.05,0.2C336.35,185.32,326.97,174.35,326.17,155.3z"/>
				</g>
				<g>
					<g>
						<g>
							<path class="st30" d="M350.01,76.59c3.91-2.25,4.06,2.55,2.42,4.18c1.53-0.52,5.48-1.57,6.56,0.02
								c1.15,1.93-1.59,4.35-3.04,5.22c2.3-0.32,8.41-1.48,9.37,1.22c1.32,3.53-6.71,6.75-9.14,7.29c1.8-0.94,5.63-0.87,6.03,1.77
								c0.47,2.99-5.22,4.42-7.44,5.09c2.36-0.88,8.49-1.14,9.31,1.78c0.97,3.61-5.78,4.36-8.15,4.34c2.85-0.26,8.12,1.31,8.32,4.73
								c-0.13,4.4-7.03,4.46-9.96,4.37c7.3,2.58,4.16,9.83-2.89,5.91c1.91,1.22,4.75,4.24,2.49,6.37c-2.4,2.35-7-1.19-8.71-3.19
								c1.78,5.62-4.3,8.59-6.99,2.99c-1.75,6.94-12.17,5.95-8.66-0.47c-1.67,4.01-8.96,5.61-6.85-0.5
								c-3.12,4.87-12.28,3.79-8.34-2.35c-1.87,0.59-5.89,2.2-7.66,0.77c-2.06-1.91,0.82-4.55,2.54-5.84
								c-2.49,1.09-12.1,2.11-7.44-2.37c-6.75,0.75-4.73-6.61,0.56-7.4c-5.46-0.8-6.38-9.16,0.02-6.56
								c-4.78-1.86-8.91-12.27,0.03-13.11c-2.58-3.44-4.46-14.49,2.19-9.95c-1.07-4.86,3.93-13.61,8.24-7.27
								c-1.86-5.96,7.16-8.85,9.57-2.83c1.65-4.91,10.61-7.24,8.51-0.23c1.01-2.04,3.18-5.43,5.97-5.13
								c2.45,0.37,3.33,2.73,2.53,4.9c2.38-3.25,8.9-1.77,5.41,2.27C351.01,68.52,351.25,72.31,350.01,76.59z"/>
						</g>
						<g>
							<path class="st31" d="M353.1,99.42c0.8-1.51,3.32-4.74,2.38-6.51c-1.33-1.87-5.44-0.49-7.11,0.03
								c1.31-1.82,5.75-7.31,2.58-9.03c-2.9-1.75-9.12,2.96-11.21,4.84c1.95-2,6.43-6.97,4.88-10.01c-1.56-3.04-6.33-0.03-8.06,1.43
								c1.31-1.82,3.03-4.98,0.07-5.8c-3.51-1.04-8.5,2.52-10.97,4.56c1.67-2.24,3.19-6.31-0.32-7.35
								c-3.11-0.94-7.81,2.86-10.31,4.64c0.87-2.26,2.36-6.15,1.38-8.6c2.24-0.5,4.83,0.36,5.97,3.19
								c1.65-4.91,10.61-7.24,8.51-0.23c1.01-2.04,3.18-5.43,5.97-5.13c2.45,0.37,3.33,2.73,2.53,4.9c2.38-3.25,8.9-1.77,5.41,2.27
								c6.2-4.09,6.44-0.3,5.2,3.97c3.91-2.25,4.06,2.55,2.42,4.18c1.53-0.52,5.48-1.57,6.56,0.02c1.15,1.93-1.59,4.35-3.04,5.22
								c2.3-0.32,8.41-1.48,9.37,1.22c1.1,2.94-4.27,5.66-7.51,6.79c-0.62,0.09-1.19,0.26-1.64,0.49c0.41-0.09,0.98-0.26,1.64-0.49
								c1.86-0.26,4.1,0.28,4.4,2.26c0.09,0.55-0.04,1.04-0.3,1.49C359.35,96.59,355.39,98.45,353.1,99.42z"/>
						</g>
						<g>
							<path class="st31" d="M316.84,85.91c-0.9-0.3-2.25-1.33-1.93-2.47c0.2-0.7,0.63-1.2,1.18-1.59c-1.95-0.06-3.9-0.72-3.73-3.01
								c0.21-2.89,5.26-1.25,6.61-0.6c0.36,0.17,0.19,0.77-0.22,0.68c-1.36-0.3-2.73-0.65-4.14-0.59c-1.21-0.02-1.32,0.75-0.34,2.33
								c0.42,0.18,0.87,0.3,1.32,0.35c0.87,0.15,1.77,0.04,2.63-0.13c0.47-0.09,0.59,0.64,0.17,0.8c-0.89,0.33-3.6,1.34-2.07,3.02
								c0.84,0.92,2.38,0.52,3.37,0.2c1.61-0.52,3.19-1.58,4.42-2.74c0.24-0.22,0.63,0.1,0.39,0.33
								C322.81,84.2,319.44,86.78,316.84,85.91z"/>
							<path class="st31" d="M308.54,103.56c0.25-0.4,0.81-0.23,0.77,0.25c-0.09,1.13,0.2,3.7,1.8,3.63
								c1.82-0.08,0.21-3.57-0.13-4.33c-0.24-0.53,0.47-0.87,0.86-0.59c0.47,0.34,0.98,0.59,1.55,0.72c1.26,0.3,1.37-1.09,0.67-1.79
								c-0.87-0.87-2.29-1.24-3.43-1.59c-0.31-0.1-0.24-0.57,0.09-0.5c1.76,0.37,4.77,0.92,4.87,3.2c0.08,1.92-1.63,1.94-3.05,1.47
								c0.29,0.76,0.51,1.54,0.51,2.36c-0.01,1.01-0.73,2.14-1.83,2.2C309.03,108.7,307.43,105.35,308.54,103.56z"/>
							<path class="st31" d="M309.87,119.84c-0.09-0.51,0.66-0.61,0.84-0.18c0.22,0.5,0.6,0.88,1.01,1.22
								c0.59,0.49,0.77,0.14,0.81-0.49c0.03-0.46,0.67-0.64,0.98-0.35c0.91,0.86,2.16,1.32,3.39,0.91c1.51-0.51,0.44-1.77-0.37-2.44
								c-0.3-0.25,0.03-0.81,0.38-0.6c1.52,0.89,2.78,2.53,1.13,3.98c-1.24,1.09-3.27,0.55-4.6-0.35c-0.29,0.55-0.8,0.9-1.56,0.72
								C310.76,122,310.06,120.9,309.87,119.84z"/>
							<path class="st31" d="M303.17,93.85c-0.71-0.49-0.77-1.42-0.48-2.16c0.32-0.82,1.1-1.4,1.91-1.67
								c0.9-0.3,2.32-0.26,2.91,0.58c0.13,0.18,0.04,0.46-0.18,0.53c-0.04,0.01-0.06,0.01-0.09,0.02c0,0,0,0,0,0c0,0-0.01,0-0.01,0
								c-0.13,0.03-0.22,0.01-0.3-0.04c-0.61-0.08-1.15-0.27-1.8-0.05c-0.52,0.18-1.01,0.62-1.22,0.99
								c-0.03,0.06-0.14,0.32-0.12,0.25c-0.04,0.13-0.04,0.22-0.04,0.25c0,0.19,0.03,0.22,0.21,0.37c0.18,0.14,0.6,0.22,0.9,0.25
								c0.58,0.06,1.15-0.04,1.73,0c0.51,0.04,0.44,0.72,0.07,0.89C305.64,94.54,304.14,94.52,303.17,93.85z"/>
							<path class="st31" d="M321.49,94.42c0.32-0.41,1.08-0.07,0.94,0.44c-0.41,1.51-1.11,3.06-0.65,4.65
								c0.43,1.5,2.18,0.32,2.7-0.29c0.69-0.83,0.97-2.28,0.25-3.16c-0.08-0.1-0.16-0.19-0.23-0.28c-0.44-0.51,0.43-1.29,0.89-0.79
								c0.97,1.01,1.96,2.09,3.23,2.7c1.59,0.76,1.02-1.58,0.73-2.29c-0.34-0.83-0.87-1.55-1.16-2.4c-0.05-0.16,0.15-0.32,0.29-0.19
								c1.46,1.4,4.13,4.6,1.62,6.26c-1.22,0.8-2.62-0.1-3.76-1.22c-0.14,1.84-1.47,3.61-3.48,3.76
								C319.16,101.88,320.16,96.18,321.49,94.42z"/>
							<path class="st31" d="M331.92,84.94c1.54,0.47,3.6,2.29,5.16,1.04c-0.51-0.49-1.08-0.92-1.56-1.45
								c-0.4-0.44-0.16-1.25,0.53-1.12c1.16,0.22,2.37,0.22,3.42-0.4c1.12-0.66-2.28-1.24-2.6-1.27c-0.32-0.03-0.29-0.54,0.03-0.56
								c1.14-0.05,4.56-0.05,3.95,2.01c-0.39,1.3-1.82,1.67-3.18,1.68c0.27,0.25,0.54,0.51,0.78,0.79c0.18,0.2,0.11,0.55-0.04,0.74
								c-0.87,1.05-2.08,1.26-3.38,1.11c-1.13-0.13-3.01-0.76-3.6-1.81C331.25,85.37,331.48,84.81,331.92,84.94z"/>
						</g>
					</g>
					<g>
						<path class="st26" d="M328.87,119.64c0,0,2.5,12.49-4.3,16.73c0,0,2.86,5.46,10.36,5.19c7.49-0.27,9.95-5.93,9.95-5.93
							c-7.09-3.73-5.5-16.37-5.5-16.37L328.87,119.64z"/>
						<path class="st27" d="M328.87,119.64l10.5-0.38c0,0-0.46,3.73,0.24,7.74c-3.68-0.84-7.08-2.08-10.33-3.53
							C329.19,121.23,328.87,119.64,328.87,119.64z"/>
					</g>
					<g>
						<path class="st14" d="M323.96,136.64c1.87,3.66,6.19,5.49,10.14,5.89c5.06,0.52,8.56-2.32,10.72-6.71
							c0.33-0.67-0.68-1.27-1.01-0.59c-1.8,3.66-4.55,6.31-8.84,6.22c-3.74-0.08-8.27-2.01-10-5.4
							C324.63,135.38,323.62,135.97,323.96,136.64L323.96,136.64z"/>
					</g>
					<g>
						<path class="st26" d="M348.39,82.31c0,0,4.29,5.44,3.57,12.41c-0.72,6.97-2.59,10.73,0.14,13.11
							c2.11,1.85,3.83,0.42,4.11,1.37c0.28,0.95-0.43,3.73-2.73,4.14c0,0-1.97,10.29-4.65,11.8c-2.68,1.51-22.86-4.41-24.68-8.32
							c-1.82-3.92-0.72-7.81-0.72-7.81s7.1-6.29,9.19-15.24C332.62,93.78,341.92,91.27,348.39,82.31z"/>
						<g>
							<g>
								<path class="st32" d="M345.09,114.44c1.91,1.98,4.69,2.28,7.27,2.48c0.89,0.07,0.67,1.29-0.06,1.44
									c-2.87,0.61-6.18-1.21-7.34-3.83C344.92,114.46,345.03,114.38,345.09,114.44L345.09,114.44z"/>
							</g>
							<path class="st33" d="M339.3,105.72c1.01,0.63,1.83,1.43,2.26,2.56c0.17,0.45,0.22,0.97,0.16,1.47
								c0.15,1.18-0.66,2.55-1.84,2.83c-1.73,0.41-3.25-0.29-4.48-1.5c-1.19-1.17-2.05-2.82-1.4-4.5
								C334.82,104.44,337.74,104.74,339.3,105.72z"/>
							<g>
								<path class="st27" d="M347.08,100.74c0.73,2.16,0.96,4.32,0.84,6.59c-0.02,0.32-0.52,0.23-0.5-0.09
									c0.15-2.15-0.01-4.37-0.45-6.48C346.95,100.71,347.06,100.69,347.08,100.74L347.08,100.74z"/>
							</g>
							<g>
								<path class="st34" d="M341.34,104.06c1.29,0.76,2.72,1.52,4.15,1.95c0.71,0.22,1.38,0.48,2.11,0.62
									c0.67,0.13,1.26,0.06,1.89,0.33c0.33,0.14,0.41,0.67,0.08,0.87c-1.16,0.7-3.42,0.47-4.62-0.13
									c-1.66-0.82-2.82-1.83-3.82-3.4C341.05,104.18,341.18,103.96,341.34,104.06L341.34,104.06z"/>
							</g>
							<g>
								<path class="st31" d="M341.01,96.21c2.03-1.83,5.32-2.5,7.9-1.58c0.51,0.18,0.15,0.96-0.35,0.76
									c-2.48-0.98-5.13,0.02-7.46,0.96C340.99,96.4,340.94,96.27,341.01,96.21L341.01,96.21z"/>
							</g>
						</g>
						<g>
							<path class="st26" d="M328.65,106.91c0,0-3.4-7.38-7.79-6.4c-4.38,0.98-1.47,13.56,2.32,14.65
								C326.99,116.25,328.89,113.74,328.65,106.91z"/>
							<path class="st27" d="M323.95,107.5c-0.28-0.17-0.61-0.27-1-0.22c-0.9,0.1-1.76,0.82-1.79,1.77
								c-0.05,1.73,2.01,2.49,3.49,2.13c0.01,0.21,0.01,0.43,0.02,0.64c0,0.41,0.67,0.53,0.8,0.14c1.12-3.26-0.9-8.39-4.88-7.85
								c-0.05,0.01-0.07,0.09-0.02,0.11C322.33,104.88,323.36,106.06,323.95,107.5z M324.22,108.27c0.18,0.62,0.29,1.27,0.36,1.94
								c-0.85,0.05-2.02,0-2.44-0.71c-0.43-0.73,0.26-1.65,1.07-1.63C323.58,107.88,323.91,108.05,324.22,108.27z"/>
						</g>
					</g>
				</g>
			</g>
		</g>
	</g>
</g>
</svg>
